P1
# une ligne image = une ligne du fichier
5 10
10000
10000
10000
00000
00000
00000
00000
00000
00000
00000
