P1
# image test
8 8
00000000
11000000
11100000
11110000
11111000
11111100
11111110
11111111
