P1
# une ligne image = une ligne du fichier
5 10
00000
01010
10101
10001
01010
00100
00000
00000
00000
00000
