P1
#
17 17
00000000100000000
00000001110000000
00000010101000000
00000100100100000
00001000100010000
00010000100001000
00100000100000100
01000000100000010
11111111111111111
01000000100000010
00100000100000100
00010000100001000
00001000100010000
00000100100100000
00000010101000000
00000001110000000
00000000100000000
