P1
#
10 7
0000000000
0001001000
0001001000
0001001000
0100000010
0011111100
0000000000
